<?xml version="1.0" encoding="UTF-8" standalone="no"?>
<!-- Created with Inkscape (http://www.inkscape.org/) -->

<svg
   width="297mm"
   height="210mm"
   viewBox="0 0 297 210"
   version="1.1"
   id="svg1"
   inkscape:version="1.4.2 (f4327f4, 2025-05-13)"
   sodipodi:docname="business-environment.svg"
   xml:space="preserve"
   inkscape:export-filename="..\_000_images\001_business_environment.png"
   inkscape:export-xdpi="300"
   inkscape:export-ydpi="300"
   xmlns:inkscape="http://www.inkscape.org/namespaces/inkscape"
   xmlns:sodipodi="http://sodipodi.sourceforge.net/DTD/sodipodi-0.dtd"
   xmlns:xlink="http://www.w3.org/1999/xlink"
   xmlns="http://www.w3.org/2000/svg"
   xmlns:svg="http://www.w3.org/2000/svg"><sodipodi:namedview
     id="namedview1"
     pagecolor="#ffffff"
     bordercolor="#000000"
     borderopacity="0.25"
     inkscape:showpageshadow="2"
     inkscape:pageopacity="0.0"
     inkscape:pagecheckerboard="0"
     inkscape:deskcolor="#d1d1d1"
     inkscape:document-units="mm"
     inkscape:zoom="1.3772587"
     inkscape:cx="675.98049"
     inkscape:cy="525.31889"
     inkscape:window-width="1920"
     inkscape:window-height="991"
     inkscape:window-x="-9"
     inkscape:window-y="-9"
     inkscape:window-maximized="1"
     inkscape:current-layer="layer1"
     showguides="false" /><defs
     id="defs1"><linearGradient
       id="swatch15"
       inkscape:swatch="solid"><stop
         style="stop-color:#ffd400;stop-opacity:1;"
         offset="0"
         id="stop15" /></linearGradient><rect
       x="394.98752"
       y="440.73056"
       width="109.00231"
       height="18.878075"
       id="rect15" /><rect
       x="264.29312"
       y="375.38336"
       width="214.91968"
       height="204.75456"
       id="rect10" /><rect
       x="334.72288"
       y="364.49216"
       width="90.760001"
       height="79.142721"
       id="rect7" /><rect
       x="429.11328"
       y="357.23136"
       width="100.19904"
       height="156.1072"
       id="rect6" /><marker
       style="overflow:visible"
       id="ArrowWideRounded"
       refX="0"
       refY="0"
       orient="auto-start-reverse"
       inkscape:stockid="Wide, rounded arrow"
       markerWidth="1"
       markerHeight="1"
       viewBox="0 0 1 1"
       inkscape:isstock="true"
       inkscape:collect="always"
       preserveAspectRatio="xMidYMid"><path
         style="fill:none;stroke:context-stroke;stroke-width:1;stroke-linecap:round"
         d="M 3,-3 0,0 3,3"
         transform="rotate(180,0.125,0)"
         sodipodi:nodetypes="ccc"
         id="path6" /></marker><linearGradient
       id="swatch5"
       inkscape:swatch="solid"><stop
         style="stop-color:#000000;stop-opacity:1;"
         offset="0"
         id="stop5" /></linearGradient><rect
       x="648.95795"
       y="291.62034"
       width="483.63796"
       height="498.01361"
       id="rect1" /><rect
       x="677.70924"
       y="336.80096"
       width="410.73288"
       height="386.0889"
       id="rect3" /><rect
       x="820.43892"
       y="547.30156"
       width="90.361233"
       height="50.314777"
       id="rect2" /><rect
       x="820.4389"
       y="547.30157"
       width="90.361237"
       height="50.314777"
       id="rect2-4" /><rect
       x="820.4389"
       y="547.30157"
       width="90.361237"
       height="50.314777"
       id="rect2-4-5" /><rect
       x="820.4389"
       y="547.30157"
       width="90.361237"
       height="50.314777"
       id="rect2-4-5-8" /><rect
       x="820.4389"
       y="547.30157"
       width="90.361237"
       height="50.314777"
       id="rect2-4-5-8-1" /><rect
       x="820.4389"
       y="547.30157"
       width="90.361237"
       height="50.314777"
       id="rect2-4-5-8-1-2" /><rect
       x="820.4389"
       y="547.30157"
       width="88.820989"
       height="79.567266"
       id="rect2-4-5-8-1-2-6" /><rect
       x="820.4389"
       y="547.30157"
       width="88.820992"
       height="107.45807"
       id="rect2-4-5-8-1-2-6-1" /><rect
       x="820.4389"
       y="547.30157"
       width="87.79416"
       height="77.679936"
       id="rect2-4-5-8-1-2-6-1-6" /><path
       d="M3.38331 -7.37634C3.38331 -7.85455 3.69415 -8.61968 4.99726 -8.70336C5.05704 -8.71532 5.10486 -8.76314 5.10486 -8.83487C5.10486 -8.96638 5.00922 -8.96638 4.87771 -8.96638C3.68219 -8.96638 2.59427 -8.35666 2.58232 -7.47198V-4.7462C2.58232 -4.27995 2.58232 -3.89738 2.10411 -3.50286C1.68568 -3.15616 1.23138 -3.13225 0.968369 -3.1203C0.908593 -3.10834 0.860772 -3.06052 0.860772 -2.98879C0.860772 -2.86924 0.932503 -2.86924 1.05205 -2.85729C1.8411 -2.80946 2.41494 -2.37908 2.54645 -1.79328C2.58232 -1.66177 2.58232 -1.63786 2.58232 -1.20747V1.15965C2.58232 1.66177 2.58232 2.04433 3.15616 2.49863C3.62242 2.85729 4.41146 2.98879 4.87771 2.98879C5.00922 2.98879 5.10486 2.98879 5.10486 2.85729C5.10486 2.73773 5.03313 2.73773 4.91357 2.72578C4.1604 2.67796 3.5746 2.29539 3.41918 1.68568C3.38331 1.57808 3.38331 1.55417 3.38331 1.12379V-1.3868C3.38331 -1.93674 3.28767 -2.13998 2.90511 -2.52254C2.65405 -2.7736 2.30735 -2.89315 1.9726 -2.98879C2.95293 -3.26376 3.38331 -3.8137 3.38331 -4.5071V-7.37634Z"
       id="g0-102" /><rect
       x="820.4389"
       y="547.30157"
       width="90.361237"
       height="50.314777"
       id="rect2-4-5-8-1-2-5" /><rect
       x="394.98752"
       y="440.73056"
       width="109.00231"
       height="18.878075"
       id="rect15-2" /><rect
       x="394.98752"
       y="440.73056"
       width="139.2616"
       height="46.419394"
       id="rect15-2-5" /><linearGradient
       inkscape:collect="always"
       xlink:href="#swatch15"
       id="linearGradient15"
       x1="186.69438"
       y1="162.79353"
       x2="229.06978"
       y2="162.79353"
       gradientUnits="userSpaceOnUse" /></defs><g
     inkscape:label="Layer 1"
     inkscape:groupmode="layer"
     id="layer1"><circle
       style="display:inline;fill:#00b3f0;fill-opacity:1;stroke:#000000;stroke-width:0.327888;stroke-opacity:1"
       id="path2-7"
       cx="207.88208"
       cy="148.81778"
       r="35.015411"
       inkscape:export-filename="..\_000_images\001_business_environment.png"
       inkscape:export-xdpi="300"
       inkscape:export-ydpi="300" /><circle
       style="display:inline;fill:#00b3f0;fill-opacity:1;stroke:#000000;stroke-width:0.264583;stroke-opacity:1"
       id="path2"
       cx="207.88208"
       cy="155.55132"
       r="28.254999" /><text
       xml:space="preserve"
       transform="scale(0.26458333)"
       id="text3"
       style="text-align:start;writing-mode:lr-tb;direction:ltr;white-space:pre;shape-inside:url(#rect3);display:inline;fill:none;fill-opacity:1;stroke:#000000;stroke-opacity:1" /><text
       xml:space="preserve"
       transform="scale(0.26458333)"
       id="text1"
       style="text-align:center;writing-mode:lr-tb;direction:ltr;white-space:pre;shape-inside:url(#rect1);display:inline;fill:none;stroke:#000000" /><text
       xml:space="preserve"
       transform="matrix(0.26458333,0,0,0.26458333,-21.156103,-11.292748)"
       id="text2-2"
       style="text-align:center;writing-mode:lr-tb;direction:ltr;white-space:pre;shape-inside:url(#rect2-4);display:inline;fill:none;fill-opacity:1;stroke:#000000;stroke-opacity:1"
       x="71.952003"
       y="0"><tspan
         x="828.89413"
         y="558.21928"
         id="tspan3">Stakeholders</tspan></text><text
       xml:space="preserve"
       transform="matrix(0.26458333,0,0,0.26458333,-21.300565,-25.100656)"
       id="text2-2-6"
       style="text-align:center;writing-mode:lr-tb;direction:ltr;white-space:pre;shape-inside:url(#rect2-4-5);display:inline;fill:none;fill-opacity:1;stroke:#000000;stroke-opacity:1"
       x="71.952003"
       y="0"><tspan
         x="839.76613"
         y="558.21928"
         id="tspan4">Economy</tspan></text><circle
       style="display:inline;fill:none;fill-opacity:1;stroke:#000000;stroke-width:0.388661;stroke-opacity:1"
       id="path2-7-2"
       cx="207.88208"
       cy="142.79626"
       r="41.505409" /><circle
       style="display:inline;fill:none;fill-opacity:1;stroke:#000000;stroke-width:0.454498;stroke-opacity:1"
       id="path2-7-2-5"
       cx="207.88208"
       cy="136.36488"
       r="48.53624" /><text
       xml:space="preserve"
       transform="matrix(0.26458333,0,0,0.26458333,-21.22754,-38.101513)"
       id="text2-2-6-6"
       style="text-align:center;writing-mode:lr-tb;direction:ltr;white-space:pre;shape-inside:url(#rect2-4-5-8);display:inline;fill:none;fill-opacity:1;stroke:#000000;stroke-opacity:1"
       x="71.952003"
       y="0"><tspan
         x="845.65813"
         y="558.21928"
         id="tspan9">Society</tspan></text><text
       xml:space="preserve"
       transform="matrix(0.26458333,0,0,0.26458333,-21.219604,-51.616444)"
       id="text2-2-6-6-3"
       style="text-align:center;writing-mode:lr-tb;direction:ltr;white-space:pre;shape-inside:url(#rect2-4-5-8-1);display:inline;fill:none;fill-opacity:1;stroke:#000000;stroke-opacity:1"
       x="71.952003"
       y="0"><tspan
         x="846.07812"
         y="558.21928"
         id="tspan10">Nature</tspan></text><path
       style="fill:none;stroke:#000000;stroke-width:0.264583"
       d="m 207.88207,87.828643 c -81.45464,0 -79.82454,0 -79.82454,0"
       id="path4" /><path
       style="fill:none;stroke:#000000;stroke-width:0.264583"
       d="m 207.88207,101.29085 c -81.45464,0 -79.82454,0 -79.82454,0"
       id="path4-7" /><path
       style="fill:none;stroke:#000000;stroke-width:0.264583"
       d="m 207.88207,127.29631 c -81.45464,0 -79.82454,0 -79.82454,0"
       id="path4-7-9" /><path
       style="fill:none;stroke:#000000;stroke-width:0.227024"
       d="m 186.82666,162.79353 c -59.96991,0 -58.76977,0 -58.76977,0"
       id="path4-7-9-6" /><text
       xml:space="preserve"
       transform="matrix(0.26458333,0,0,0.26458333,-89.195159,-51.440445)"
       id="text2-2-6-6-3-0"
       style="text-align:start;writing-mode:lr-tb;direction:ltr;white-space:pre;shape-inside:url(#rect2-4-5-8-1-2);display:inline;fill:none;fill-opacity:1;stroke:#000000;stroke-opacity:1"
       x="31.926006"
       y="0"><tspan
         x="820.43945"
         y="558.21928"
         id="tspan11">Environmental</tspan></text><text
       xml:space="preserve"
       transform="matrix(0.26458333,0,0,0.26458333,-88.918935,-40.150231)"
       id="text2-2-6-6-3-0-9"
       style="text-align:start;writing-mode:lr-tb;direction:ltr;white-space:pre;shape-inside:url(#rect2-4-5-8-1-2-6);display:inline;fill:none;fill-opacity:1;stroke:#000000;stroke-opacity:1"
       x="51.180004"
       y="0"><tspan
         x="820.43945"
         y="558.21928"
         id="tspan12">Political
</tspan><tspan
         x="820.43945"
         y="573.21928"
         id="tspan13">Economic
</tspan><tspan
         x="820.43945"
         y="588.21928"
         id="tspan14">Socio-cultural
</tspan><tspan
         x="820.43945"
         y="603.21928"
         id="tspan16">Technical
</tspan><tspan
         x="820.43945"
         y="618.21928"
         id="tspan17">Legal</tspan></text><text
       xml:space="preserve"
       transform="matrix(0.26458333,0,0,0.26458333,-89.049114,-10.974118)"
       id="text2-2-6-6-3-0-9-9"
       style="text-align:start;writing-mode:lr-tb;direction:ltr;white-space:pre;shape-inside:url(#rect2-4-5-8-1-2-6-1);display:inline;fill:none;fill-opacity:1;stroke:#000000;stroke-opacity:1"
       x="51.180004"
       y="0"><tspan
         x="820.43945"
         y="558.21928"
         id="tspan18">Competitors
</tspan><tspan
         x="820.43945"
         y="573.21928"
         id="tspan19">Customers
</tspan><tspan
         x="820.43945"
         y="588.21928"
         id="tspan20">Suppliers
</tspan><tspan
         x="820.43945"
         y="603.21928"
         id="tspan21">Shareholders
</tspan><tspan
         x="820.43945"
         y="618.21928"
         id="tspan22">Communities
</tspan><tspan
         x="820.43945"
         y="633.21928"
         id="tspan23">Media</tspan></text><text
       xml:space="preserve"
       transform="matrix(0.26458333,0,0,0.26458333,-88.933854,20.493165)"
       id="text2-2-6-6-3-0-9-9-4"
       style="text-align:start;writing-mode:lr-tb;direction:ltr;white-space:pre;shape-inside:url(#rect2-4-5-8-1-2-6-1-6);display:inline;fill:none;fill-opacity:1;stroke:#000000;stroke-opacity:1"
       x="51.180004"
       y="0"><tspan
         x="820.43945"
         y="558.21928"
         id="tspan24">Resources
</tspan><tspan
         x="820.43945"
         y="573.21928"
         id="tspan25">Structures
</tspan><tspan
         x="820.43945"
         y="588.21928"
         id="tspan26">Culture
</tspan><tspan
         x="820.43945"
         y="603.21928"
         id="tspan27">Behaviour</tspan></text><path
       style="fill:none;stroke:#000000;stroke-width:0.264583"
       d="m 99.284295,133.11863 v 0"
       id="path5"
       sodipodi:nodetypes="cc" /><text
       xml:space="preserve"
       transform="scale(0.26458333)"
       id="text6"
       style="text-align:start;writing-mode:lr-tb;direction:ltr;white-space:pre;shape-inside:url(#rect6);display:inline;fill:none;stroke:#000000;stroke-width:0.00000166;stroke-dasharray:0.00000168, 0.00002016;stroke-dashoffset:0;stroke-opacity:1" /><text
       xml:space="preserve"
       transform="scale(0.26458333)"
       id="text7"
       style="text-align:start;writing-mode:lr-tb;direction:ltr;white-space:pre;shape-inside:url(#rect7);display:inline;fill:none;stroke:#000000;stroke-width:0.00000166;stroke-dasharray:0.00000168, 0.00002016;stroke-dashoffset:0;stroke-opacity:1" /><circle
       id="path10"
       style="fill:#000000;stroke:none;stroke-width:0.264583"
       cx="136.78137"
       cy="95.478004"
       r="6.5881244e-07" /><circle
       id="path11"
       style="fill:#000000;stroke:none;stroke-width:0.264583"
       cx="130.05756"
       cy="92.980598"
       r="6.5881244e-07" /><path
       style="fill:none;stroke:#000080;stroke-width:0.265;stroke-dasharray:none;stroke-dashoffset:0;stroke-opacity:1"
       d="m 123.12966,88.350566 c 0,38.428474 0,38.428474 0,38.428474"
       id="path15" /><path
       style="fill:none;stroke:#000080;stroke-width:0.265;stroke-dasharray:none;stroke-dashoffset:0;stroke-opacity:1"
       d="m 123.08272,130.36853 c 0,31.12835 0,31.12835 0,31.12835"
       id="path15-5" /><path
       style="fill:none;stroke:#000080;stroke-width:0.265;stroke-dasharray:none;stroke-dashoffset:0;stroke-opacity:1"
       d="m 122.84421,165.73024 c 0,16.7202 0,16.7202 0,16.7202"
       id="path15-5-7" /><text
       xml:space="preserve"
       transform="matrix(0.26458333,0,0,0.26458333,-18.336835,-10.779869)"
       id="text15"
       style="text-align:center;writing-mode:lr-tb;direction:ltr;white-space:pre;shape-inside:url(#rect15);display:inline;fill:none;stroke:#000080;stroke-width:1.00157;stroke-dasharray:none;stroke-dashoffset:0;stroke-opacity:1"
       x="53.213985"
       y="0"><tspan
         x="395.56129"
         y="451.64897"
         id="tspan29"><tspan
           style="fill:#00aa00"
           id="tspan28">Macroenvironment</tspan></tspan></text><text
       xml:space="preserve"
       transform="matrix(0.26458333,0,0,0.26458333,-18.336835,27.588035)"
       id="text15-1"
       style="text-align:center;writing-mode:lr-tb;direction:ltr;white-space:pre;shape-inside:url(#rect15-2);display:inline;fill:none;stroke:#000080;stroke-width:1.00157;stroke-dasharray:none;stroke-dashoffset:0;stroke-opacity:1"
       x="51.395977"
       y="0"><tspan
         x="397.3793"
         y="451.64897"
         id="tspan30">Microenvironment</tspan></text><text
       xml:space="preserve"
       transform="matrix(0.26458333,0,0,0.26458333,-20.50139,55.74567)"
       id="text15-1-2"
       style="text-align:start;writing-mode:lr-tb;direction:ltr;white-space:pre;shape-inside:url(#rect15-2-5);display:inline;fill:none;stroke:#000080;stroke-width:1.00157;stroke-dasharray:none;stroke-dashoffset:0;stroke-opacity:1"><tspan
         x="394.98828"
         y="451.64897"
         id="tspan31">Business environment</tspan></text><circle
       style="fill:url(#linearGradient15);fill-opacity:1;stroke:#000000;stroke-width:0.265;stroke-opacity:1;opacity:1;stroke-dasharray:none"
       id="path1"
       cx="207.88208"
       cy="162.79353"
       r="21.055408"
       inkscape:export-filename="..\_000_images\001_business_environment.png"
       inkscape:export-xdpi="300"
       inkscape:export-ydpi="300" /><text
       xml:space="preserve"
       transform="matrix(0.26458333,0,0,0.26458333,-21.114829,13.732951)"
       id="text2"
       style="text-align:start;writing-mode:lr-tb;direction:ltr;white-space:pre;shape-inside:url(#rect2);display:inline;fill:none;fill-opacity:1;stroke:#000000;stroke-opacity:1"
       x="35.802006"
       y="0"><tspan
         x="840.75013"
         y="558.21928"
         id="tspan33"><tspan
           style="text-align:center;text-anchor:middle"
           id="tspan32">Business
</tspan></tspan><tspan
         x="828.96612"
         y="573.21928"
         id="tspan35"><tspan
           style="text-align:center;text-anchor:middle"
           id="tspan34">Organization</tspan></tspan></text></g></svg>
